<svg data-v-423bf9ae="" xmlns="http://www.w3.org/2000/svg" viewBox="0 0 373.8164095559702 60" class="font"><!----><!----><!----><g data-v-423bf9ae="" id="cc0a052d-3573-419f-b71e-b3570b0112d7" fill="black" transform="matrix(9.66183568944126,0,0,9.66183568944126,-2.9951702033056904,-23.86473514460299)"><path d="M0.31 8.59L1.86 8.59L1.86 7.43Q1.86 7.43 1.91 7.43Q1.96 7.44 1.98 7.44Q2.00 7.44 2.06 7.44Q2.11 7.44 2.14 7.45Q2.17 7.45 2.22 7.45Q2.28 7.45 2.32 7.45Q2.36 7.46 2.41 7.46Q2.45 7.46 2.50 7.46L2.50 7.46Q2.87 7.46 3.19 7.29Q3.52 7.13 3.78 6.83Q4.03 6.52 4.18 6.05Q4.34 5.58 4.34 5.00L4.34 5.00Q4.34 4.04 3.87 3.56Q3.40 3.08 2.50 3.08L2.50 3.08Q2.17 3.08 1.68 3.10Q1.18 3.12 0.93 3.12L0.93 3.12L0.31 3.12L0.31 8.59ZM2.80 4.79L2.80 4.79L2.80 5.48Q2.80 5.95 2.60 6.20Q2.40 6.44 2.03 6.44L2.03 6.44L1.86 6.44L1.86 4.02L2.08 4.02Q2.43 4.02 2.62 4.23Q2.80 4.45 2.80 4.79ZM4.74 8.59L6.25 8.59L6.25 6.45Q6.38 6.20 6.86 6.20L6.86 6.20Q7.19 6.20 7.29 6.29L7.29 6.29L7.45 4.63Q7.32 4.59 7.21 4.59L7.21 4.59Q6.17 4.59 5.98 5.73L5.98 5.73L5.84 4.62L5.46 4.62L4.46 4.87L4.46 5.39L4.74 5.57L4.74 8.59ZM9.91 6.17L9.91 6.17L9.20 6.17L9.20 5.78Q9.20 5.61 9.21 5.50Q9.22 5.39 9.26 5.29Q9.31 5.18 9.39 5.14Q9.48 5.09 9.62 5.09L9.62 5.09Q9.79 5.09 9.85 5.33Q9.91 5.58 9.91 6.17ZM9.53 8.68L9.53 8.68Q9.81 8.68 10.12 8.62Q10.43 8.55 10.76 8.37Q11.10 8.18 11.27 7.90L11.27 7.90L10.99 7.42Q10.86 7.55 10.67 7.63Q10.48 7.72 10.29 7.77Q10.10 7.81 9.94 7.81L9.94 7.81Q9.77 7.81 9.65 7.78Q9.53 7.75 9.42 7.67Q9.31 7.58 9.25 7.41Q9.19 7.23 9.19 6.95L9.19 6.95L9.19 6.86L11.33 6.86L11.33 6.35Q11.33 5.39 10.93 4.96Q10.53 4.53 9.61 4.53L9.61 4.53Q8.66 4.53 8.12 5.06Q7.59 5.60 7.59 6.65L7.59 6.65Q7.59 7.08 7.70 7.44Q7.80 7.80 8.02 8.08Q8.24 8.37 8.63 8.53Q9.01 8.68 9.53 8.68ZM13.06 8.68L13.06 8.68Q14.86 8.68 14.86 7.25L14.86 7.25Q14.86 6.75 14.62 6.42Q14.37 6.09 13.82 5.91L13.82 5.91Q13.72 5.88 13.59 5.84Q13.45 5.81 13.38 5.79Q13.30 5.77 13.23 5.73Q13.15 5.70 13.12 5.65Q13.09 5.60 13.09 5.53L13.09 5.53Q13.09 5.26 13.53 5.26L13.53 5.26Q14.07 5.26 14.38 5.57L14.38 5.57L14.58 4.90Q14.58 4.90 14.50 4.82L14.50 4.82Q14.12 4.53 13.32 4.53L13.32 4.53Q12.86 4.53 12.48 4.66Q12.10 4.80 11.86 5.10Q11.62 5.40 11.62 5.82L11.62 5.82Q11.62 6.85 12.70 7.17L12.70 7.17Q13.12 7.30 13.31 7.39Q13.50 7.49 13.50 7.61L13.50 7.61Q13.50 7.74 13.39 7.81Q13.29 7.88 13.01 7.88L13.01 7.88Q12.62 7.88 12.25 7.77Q11.88 7.65 11.72 7.50L11.72 7.50L11.60 8.25Q11.72 8.39 12.17 8.54Q12.62 8.68 13.06 8.68ZM16.49 8.68L16.49 8.68Q18.29 8.68 18.29 7.25L18.29 7.25Q18.29 6.75 18.05 6.42Q17.80 6.09 17.25 5.91L17.25 5.91Q17.15 5.88 17.02 5.84Q16.88 5.81 16.81 5.79Q16.73 5.77 16.66 5.73Q16.58 5.70 16.55 5.65Q16.52 5.60 16.52 5.53L16.52 5.53Q16.52 5.26 16.96 5.26L16.96 5.26Q17.50 5.26 17.81 5.57L17.81 5.57L18.01 4.90Q18.01 4.90 17.93 4.82L17.93 4.82Q17.55 4.53 16.75 4.53L16.75 4.53Q16.29 4.53 15.91 4.66Q15.53 4.80 15.29 5.10Q15.05 5.40 15.05 5.82L15.05 5.82Q15.05 6.85 16.13 7.17L16.13 7.17Q16.55 7.30 16.74 7.39Q16.93 7.49 16.93 7.61L16.93 7.61Q16.93 7.74 16.82 7.81Q16.72 7.88 16.44 7.88L16.44 7.88Q16.05 7.88 15.68 7.77Q15.31 7.65 15.15 7.50L15.15 7.50L15.03 8.25Q15.15 8.39 15.60 8.54Q16.05 8.68 16.49 8.68ZM18.64 8.59L20.18 8.59L20.18 7.43Q20.19 7.43 20.24 7.43Q20.29 7.44 20.31 7.44Q20.33 7.44 20.38 7.44Q20.44 7.44 20.47 7.45Q20.50 7.45 20.55 7.45Q20.60 7.45 20.64 7.45Q20.68 7.46 20.73 7.46Q20.78 7.46 20.83 7.46L20.83 7.46Q21.19 7.46 21.52 7.29Q21.84 7.13 22.10 6.83Q22.36 6.52 22.51 6.05Q22.66 5.58 22.66 5.00L22.66 5.00Q22.66 4.04 22.19 3.56Q21.73 3.08 20.82 3.08L20.82 3.08Q20.50 3.08 20.00 3.10Q19.50 3.12 19.25 3.12L19.25 3.12L18.64 3.12L18.64 8.59ZM21.13 4.79L21.13 4.79L21.13 5.48Q21.13 5.95 20.93 6.20Q20.72 6.44 20.36 6.44L20.36 6.44L20.18 6.44L20.18 4.02L20.41 4.02Q20.76 4.02 20.94 4.23Q21.13 4.45 21.13 4.79ZM24.94 8.12L24.94 8.12Q24.51 8.12 24.51 7.24L24.51 7.24L24.51 5.73Q24.51 5.43 24.63 5.26Q24.74 5.10 24.94 5.10L24.94 5.10Q25.37 5.10 25.37 6.01L25.37 6.01L25.37 7.49Q25.37 7.78 25.26 7.95Q25.15 8.12 24.94 8.12ZM24.91 8.68L24.91 8.68Q26.01 8.68 26.53 8.17Q27.04 7.66 27.04 6.58L27.04 6.58Q27.04 5.55 26.56 5.04Q26.07 4.53 24.97 4.53L24.97 4.53Q23.85 4.53 23.35 5.06Q22.85 5.60 22.85 6.65L22.85 6.65Q22.85 7.71 23.34 8.20Q23.84 8.68 24.91 8.68ZM27.50 3.31L27.50 8.59L29.02 8.59L29.02 2.47L28.72 2.47L27.22 2.71L27.22 3.14L27.50 3.31ZM29.64 5.57L29.64 8.59L31.14 8.59L31.14 4.62L30.36 4.62L29.36 4.90L29.36 5.39L29.64 5.57ZM29.55 3.42L30.31 4.19L30.49 4.19L31.29 3.42L31.29 3.26L30.49 2.49L30.31 2.49L29.55 3.26L29.55 3.42ZM33.02 8.68L33.02 8.68Q34.82 8.68 34.82 7.25L34.82 7.25Q34.82 6.75 34.58 6.42Q34.33 6.09 33.78 5.91L33.78 5.91Q33.68 5.88 33.55 5.84Q33.41 5.81 33.34 5.79Q33.26 5.77 33.19 5.73Q33.11 5.70 33.08 5.65Q33.04 5.60 33.04 5.53L33.04 5.53Q33.04 5.26 33.49 5.26L33.49 5.26Q34.03 5.26 34.34 5.57L34.34 5.57L34.54 4.90Q34.54 4.90 34.46 4.82L34.46 4.82Q34.08 4.53 33.28 4.53L33.28 4.53Q32.82 4.53 32.44 4.66Q32.06 4.80 31.82 5.10Q31.57 5.40 31.57 5.82L31.57 5.82Q31.57 6.85 32.66 7.17L32.66 7.17Q33.08 7.30 33.27 7.39Q33.46 7.49 33.46 7.61L33.46 7.61Q33.46 7.74 33.35 7.81Q33.25 7.88 32.97 7.88L32.97 7.88Q32.58 7.88 32.21 7.77Q31.84 7.65 31.68 7.50L31.68 7.50L31.56 8.25Q31.68 8.39 32.13 8.54Q32.58 8.68 33.02 8.68ZM35.15 8.59L36.67 8.59L36.67 5.87Q36.67 5.86 36.71 5.82Q36.76 5.79 36.77 5.78Q36.78 5.77 36.82 5.74Q36.86 5.71 36.88 5.70Q36.90 5.69 36.94 5.67Q36.98 5.66 37.01 5.65Q37.05 5.65 37.09 5.65L37.09 5.65Q37.47 5.65 37.46 6.09L37.46 6.09L37.46 8.59L39.00 8.59L39.00 6.22Q39.00 6.19 39.00 6.13L39.00 6.13Q39.00 6.08 39.00 6.05L39.00 6.05Q39.00 5.23 38.74 4.88Q38.48 4.53 37.84 4.53L37.84 4.53Q37.66 4.53 37.47 4.60Q37.28 4.67 37.14 4.77Q37.01 4.87 36.90 4.97Q36.79 5.08 36.73 5.15L36.73 5.15L36.68 5.22L36.68 2.47L36.37 2.47L34.87 2.71L34.87 3.14L35.15 3.31L35.15 8.59Z"></path></g><!----><!----></svg>